
<svg xmlns="http://www.w3.org/2000/svg" viewBox="0 0 800 400" preserveAspectRatio="xMidYMid slice">
  <defs>
    <radialGradient id="mgStarGlow" cx="0" cy="0" r="1">
      <stop offset="0" stop-color="#A5B4FC" stop-opacity=".9"></stop>
      <stop offset="1" stop-color="#A5B4FC" stop-opacity="0"></stop>
    </radialGradient>
  </defs>
  <g fill="#E0E7FF">
    <circle cx="40" cy="70" r="1.2" opacity=".85"></circle>
    <circle cx="120" cy="40" r=".8" opacity=".6"></circle>
    <circle cx="200" cy="120" r="1" opacity=".7"></circle>
    <circle cx="320" cy="60" r=".7" opacity=".5"></circle>
    <circle cx="410" cy="180" r="1.4" opacity=".9"></circle>
    <circle cx="500" cy="80" r=".8" opacity=".6"></circle>
    <circle cx="610" cy="160" r="1" opacity=".75"></circle>
    <circle cx="720" cy="50" r=".9" opacity=".55"></circle>
    <circle cx="80" cy="250" r=".8" opacity=".5"></circle>
    <circle cx="180" cy="320" r="1.2" opacity=".8"></circle>
    <circle cx="270" cy="270" r=".7" opacity=".55"></circle>
    <circle cx="360" cy="340" r="1" opacity=".7"></circle>
    <circle cx="460" cy="290" r=".8" opacity=".55"></circle>
    <circle cx="560" cy="350" r="1.3" opacity=".85"></circle>
    <circle cx="660" cy="280" r=".7" opacity=".55"></circle>
    <circle cx="750" cy="330" r="1" opacity=".7"></circle>
    <circle cx="240" cy="200" r=".7" opacity=".4"></circle>
    <circle cx="540" cy="200" r=".7" opacity=".4"></circle>
  </g>
  
  <g transform="translate(120 120)"><circle r="120" fill="url(#mgStarGlow)" opacity=".25"></circle></g>
  <g transform="translate(620 240)"><circle r="160" fill="url(#mgStarGlow)" opacity=".18"></circle></g>
</svg>